<?xml version="1.0" encoding="UTF-8" standalone="no"?>
<!-- Created with Inkscape (http://www.inkscape.org/) -->

<svg
   width="210mm"
   height="297mm"
   viewBox="0 0 210 297"
   version="1.1"
   id="svg5"
   sodipodi:docname="shelterDaw01.svg"
   inkscape:version="1.2-dev (1d8154c6, 2021-12-02)"
   xmlns:inkscape="http://www.inkscape.org/namespaces/inkscape"
   xmlns:sodipodi="http://sodipodi.sourceforge.net/DTD/sodipodi-0.dtd"
   xmlns="http://www.w3.org/2000/svg"
   xmlns:svg="http://www.w3.org/2000/svg">
  <sodipodi:namedview
     id="namedview7"
     pagecolor="#505050"
     bordercolor="#eeeeee"
     borderopacity="1"
     inkscape:pageshadow="0"
     inkscape:pageopacity="0"
     inkscape:pagecheckerboard="0"
     inkscape:blackoutopacity="0.0"
     inkscape:document-units="mm"
     showgrid="false"
     inkscape:zoom="0.72871773"
     inkscape:cx="738.96925"
     inkscape:cy="670.35558"
     inkscape:window-width="1920"
     inkscape:window-height="1001"
     inkscape:window-x="-9"
     inkscape:window-y="-9"
     inkscape:window-maximized="1"
     inkscape:current-layer="layer1" />
  <defs
     id="defs2">
    <inkscape:path-effect
       effect="bspline"
       id="path-effect22453"
       is_visible="true"
       lpeversion="1"
       weight="33.333333"
       steps="2"
       helper_size="0"
       apply_no_weight="true"
       apply_with_weight="true"
       only_selected="false" />
    <inkscape:path-effect
       effect="bspline"
       id="path-effect21939"
       is_visible="true"
       lpeversion="1"
       weight="33.333333"
       steps="2"
       helper_size="0"
       apply_no_weight="true"
       apply_with_weight="true"
       only_selected="false" />
    <inkscape:path-effect
       effect="bspline"
       id="path-effect21425"
       is_visible="true"
       lpeversion="1"
       weight="33.333333"
       steps="2"
       helper_size="0"
       apply_no_weight="true"
       apply_with_weight="true"
       only_selected="false" />
    <inkscape:path-effect
       effect="bspline"
       id="path-effect20911"
       is_visible="true"
       lpeversion="1"
       weight="33.333333"
       steps="2"
       helper_size="0"
       apply_no_weight="true"
       apply_with_weight="true"
       only_selected="false" />
    <inkscape:path-effect
       effect="bspline"
       id="path-effect18355"
       is_visible="true"
       lpeversion="1"
       weight="33.333333"
       steps="2"
       helper_size="0"
       apply_no_weight="true"
       apply_with_weight="true"
       only_selected="false" />
    <inkscape:path-effect
       effect="bspline"
       id="path-effect17376"
       is_visible="true"
       lpeversion="1"
       weight="33.333333"
       steps="2"
       helper_size="0"
       apply_no_weight="true"
       apply_with_weight="true"
       only_selected="false" />
    <inkscape:path-effect
       effect="bspline"
       id="path-effect17309"
       is_visible="true"
       lpeversion="1"
       weight="33.333333"
       steps="2"
       helper_size="0"
       apply_no_weight="true"
       apply_with_weight="true"
       only_selected="false" />
    <inkscape:path-effect
       effect="bspline"
       id="path-effect15019"
       is_visible="true"
       lpeversion="1"
       weight="33.333333"
       steps="2"
       helper_size="0"
       apply_no_weight="true"
       apply_with_weight="true"
       only_selected="false" />
    <inkscape:path-effect
       effect="bspline"
       id="path-effect15015"
       is_visible="true"
       lpeversion="1"
       weight="33.333333"
       steps="2"
       helper_size="0"
       apply_no_weight="true"
       apply_with_weight="true"
       only_selected="false" />
    <inkscape:path-effect
       effect="bspline"
       id="path-effect14861"
       is_visible="true"
       lpeversion="1"
       weight="33.333333"
       steps="2"
       helper_size="0"
       apply_no_weight="true"
       apply_with_weight="true"
       only_selected="false" />
    <inkscape:path-effect
       effect="bspline"
       id="path-effect14857"
       is_visible="true"
       lpeversion="1"
       weight="33.333333"
       steps="2"
       helper_size="0"
       apply_no_weight="true"
       apply_with_weight="true"
       only_selected="false" />
    <inkscape:path-effect
       effect="bspline"
       id="path-effect13770"
       is_visible="true"
       lpeversion="1"
       weight="33.333333"
       steps="2"
       helper_size="0"
       apply_no_weight="true"
       apply_with_weight="true"
       only_selected="false" />
    <inkscape:path-effect
       effect="bspline"
       id="path-effect13556"
       is_visible="true"
       lpeversion="1"
       weight="33.333333"
       steps="2"
       helper_size="0"
       apply_no_weight="true"
       apply_with_weight="true"
       only_selected="false" />
    <inkscape:path-effect
       effect="bspline"
       id="path-effect13552"
       is_visible="true"
       lpeversion="1"
       weight="33.333333"
       steps="2"
       helper_size="0"
       apply_no_weight="true"
       apply_with_weight="true"
       only_selected="false" />
    <inkscape:path-effect
       effect="bspline"
       id="path-effect13156"
       is_visible="true"
       lpeversion="1"
       weight="33.333333"
       steps="2"
       helper_size="0"
       apply_no_weight="true"
       apply_with_weight="true"
       only_selected="false" />
    <inkscape:path-effect
       effect="bspline"
       id="path-effect9179"
       is_visible="true"
       lpeversion="1"
       weight="33.333333"
       steps="2"
       helper_size="0"
       apply_no_weight="true"
       apply_with_weight="true"
       only_selected="false" />
    <inkscape:path-effect
       effect="bspline"
       id="path-effect3672"
       is_visible="true"
       lpeversion="1"
       weight="33.333333"
       steps="2"
       helper_size="0"
       apply_no_weight="true"
       apply_with_weight="true"
       only_selected="false" />
    <inkscape:path-effect
       effect="bspline"
       id="path-effect3158"
       is_visible="true"
       lpeversion="1"
       weight="33.333333"
       steps="2"
       helper_size="0"
       apply_no_weight="true"
       apply_with_weight="true"
       only_selected="false" />
    <inkscape:path-effect
       effect="bspline"
       id="path-effect2134"
       is_visible="true"
       lpeversion="1"
       weight="33.333333"
       steps="2"
       helper_size="0"
       apply_no_weight="true"
       apply_with_weight="true"
       only_selected="false" />
    <inkscape:path-effect
       effect="bspline"
       id="path-effect2130"
       is_visible="true"
       lpeversion="1"
       weight="33.333333"
       steps="2"
       helper_size="0"
       apply_no_weight="true"
       apply_with_weight="true"
       only_selected="false" />
  </defs>
  <g
     inkscape:label="Capa 1"
     inkscape:groupmode="layer"
     id="layer1">
    <path
       style="fill:#1a1a1a;stroke-width:0.235007"
       d="m 34.097466,130.4155 c 0.971055,10.30461 2.913135,30.91353 15.231014,41.76732 12.317879,10.85379 35.010084,11.95266 53.24129,10.41114 18.2312,-1.54152 31.9997,-5.72328 39.82209,-14.39247 7.82239,-8.66919 9.69846,-21.82547 6.38818,-33.05195 -3.31029,-11.22648 -11.80688,-20.52251 -16.10004,-29.63419 -4.29315,-9.111686 -4.38246,-18.03851 -5.23374,-27.048538 -0.85128,-9.010027 -2.46453,-18.10274 -8.24004,-14.287846 -5.7755,3.814894 -15.71271,20.537067 -23.791659,31.46395 C 87.335608,106.5698 81.115323,111.70094 72.414014,107.18987 63.712704,102.6788 52.530716,88.525742 44.533886,79.905642 c -7.99683,-8.6201 -12.808125,-11.706733 -14.178528,-4.083356 -1.370403,7.623378 0.700288,25.955654 3.742108,54.593214 z"
       id="path2132"
       inkscape:path-effect="#path-effect2134"
       inkscape:original-d="m -100.85036,96.510646 c 1.942252,20.609214 3.884334,41.218134 5.826241,61.826784 22.69369,1.09926 45.385894,2.19813 68.079216,3.29673 13.76921,-4.18161 27.53770038,-8.36338 41.30627,-12.54555 1.87632,-13.15652 3.75239,-26.3128 5.62833,-39.46963 -8.49676,-9.29612 -16.9933596,-18.592154 -25.4903096,-27.888664 -0.0891,-8.926898 -0.17844,-17.853722 -0.26793,-26.781008 -1.61313,-9.092789 -3.22638,-18.185501 -4.8398304,-27.278677 -9.93744,16.72313 -19.87463,33.445311 -29.812216,50.167545 -6.220369,5.13163 -12.440653,10.26277 -18.661246,15.39374 -11.182264,-14.15334 -22.364255,-28.306392 -33.546645,-42.460022 -4.811316,-3.086472 -9.62261,-6.173106 -14.43418,-9.260088 2.07098,18.333598 6.2123,54.99884 6.2123,54.99884 z"
       sodipodi:nodetypes="ccccccccccccc" />
    <path
       style="fill:#1a1a1a;stroke-width:0.264583"
       d="m 6.8986502,175.42873 c 5.8094328,0.42362 16.3385588,11.79992 38.7894228,8.83454 22.450864,-2.96538 56.821807,-20.27188 81.572047,-28.56218 24.75024,-8.2903 39.87829,-7.56416 51.3154,-2.78337 11.4371,4.78078 19.18267,13.61557 26.02067,27.95747 6.838,14.3419 12.7682,34.18991 14.03888,48.41057 1.27067,14.22066 -2.11801,22.81339 -6.11194,30.80121 -3.99393,7.98782 -8.59286,15.37031 -15.24932,20.33237 -6.65645,4.96207 -15.37021,7.50359 -32.49574,9.44005 -17.12552,1.93647 -42.66168,3.26774 -59.9686,3.44929 -17.306918,0.18155 -26.383752,-0.78664 -35.944984,-1.51282 -9.561233,-0.72617 -19.606263,-1.21027 -29.04643,-3.32822 C 30.377889,286.34969 21.54311,282.59793 14.160367,277.09121 6.777625,271.58449 0.84742485,264.32302 -3.2675921,256.0326 c -4.115017,-8.29042 -6.4144834,-17.60931 -5.748862,-27.77576 0.6656213,-10.16644 4.2962808,-21.17944 6.6563664,-31.95102 2.3600856768178,-10.77157 3.4493054,-21.3007 9.2587379,-20.87709 z"
       id="path9177"
       inkscape:path-effect="#path-effect9179"
       inkscape:original-d="m -131.79829,140.8753 c 10.52961,11.3768 21.05874,22.7531 31.58802,34.12959 34.372592,-17.30693 68.743537,-34.61342 103.1149174,-51.92053 15.1289296,0.72644 30.2569796,1.45258 45.3850796,2.17848 7.74614,8.8354 15.49171,17.67019 23.23716,26.50489 5.93071,19.84907 11.8609,39.69708 17.79096,59.54523 -3.38856,8.59335 -6.77724,17.18608 -10.16626,25.77873 -4.59885,7.38305 -9.19778,14.76554 -13.79707,22.14791 -8.71384,2.54188 -17.4276,5.08339 -26.1418,7.62471 -25.53693,1.33157 -51.07309,2.66285 -76.610029,3.99389 -9.076933,-0.96798 -18.153768,-1.93617 -27.231051,-2.90465 -10.045168,-0.48387 -20.090199,-0.96795 -30.135697,-1.45232 -8.83487,-3.75166 -17.66966,-7.5034 -26.50489,-11.25551 -5.93017,-7.26149 -11.86037,-14.52296 -17.79095,-21.78484 -2.29929,-9.31899 -4.59876,-18.63788 -6.89853,-27.95721 3.63114,-11.01341 7.2618,-22.02641 10.89242,-33.04034 1.08952,-10.52929 2.17874,-21.05842 3.26772,-31.58803 z"
       sodipodi:nodetypes="ccccccccccccccccc" />
    <path
       style="fill:#e6e6e6;stroke-width:0.0571233"
       d="m 107.18838,153.40866 -4.49972,-4.29698"
       id="path13223" />
    <path
       style="fill:#e6e6e6;stroke-width:0.0711886"
       d="m 117.62784,118.07601 c -1.34467,-1.23198 -6.18803,-1.93156 -10.62212,-1.01212 -4.4341,0.91944 -8.458724,3.45785 -9.345859,5.1774 -0.887135,1.71955 1.363178,2.6201 3.081009,2.0202 1.71783,-0.5999 2.90315,-2.70011 4.54019,-3.98408 1.63704,-1.28396 3.72557,-1.75156 5.36477,-1.18886 1.63921,0.5627 2.82902,2.15548 4.50093,2.06962 1.67192,-0.0859 3.82575,-1.85019 2.48108,-3.08216 z"
       id="path13554"
       inkscape:path-effect="#path-effect13556"
       inkscape:original-d="m 119.23872,114.95426 c -4.88763,-0.23987 -9.77536,-0.4798 -14.66319,-0.71982 -3.76749,2.9066 -7.534934,5.81306 -11.302559,8.71953 2.325348,0.6845 4.650524,1.36895 6.975669,2.05334 0.98229,-2.20265 1.96437,-4.40524 2.94634,-6.60798 2.03537,-0.66233 4.07053,-1.3247 6.10558,-1.98715 1.33486,1.47368 2.66949,2.94723 4.00407,4.4208 1.97825,-1.95956 3.95619,-3.91904 5.93409,-5.87872 z"
       sodipodi:nodetypes="cccccccc" />
    <path
       style="fill:#e6e6e6;stroke-width:0.0720231"
       d="m 62.643126,126.05804 c 0.89322,-1.64883 5.114043,-3.68043 9.397005,-3.90974 4.282962,-0.22931 8.627856,1.34366 9.897013,2.90299 1.269156,1.55933 -0.537404,3.10485 -2.262102,2.93895 -1.724698,-0.1659 -3.367474,-2.04309 -5.202295,-2.94577 -1.83482,-0.90268 -3.861434,-0.83076 -5.202445,0.19753 -1.341011,1.02828 -1.996408,3.0127 -3.5413,3.37182 -1.544891,0.35912 -3.979097,-0.90695 -3.085876,-2.55578 z"
       id="path17305"
       inkscape:path-effect="#path-effect17309"
       inkscape:original-d="m 58.541726,129.63793 c 4.010489,-2.42028 8.021026,-4.84068 12.031616,-7.26118 4.473913,1.15655 8.947728,2.31298 13.421688,3.46936 -1.652942,1.70908 -3.305792,3.418 -4.958624,5.12687 -1.812617,-1.71396 -3.625013,-3.42795 -5.437406,-5.14215 -2.010945,0.26281 -4.021763,0.5254 -6.032526,0.78788 -0.465551,2.03759 -0.930979,4.07495 -1.396354,6.11231 -2.542961,-1.03091 -5.085661,-2.06191 -7.628394,-3.09309 z"
       sodipodi:nodetypes="cccccccc" />
    <path
       style="fill:#e6e6e6;stroke-width:0.0905383"
       d="m 87.765086,135.46407 c -0.777182,0.14204 -2.331618,0.42612 -3.108893,0.56817 -0.777275,0.14205 -3.222618,-1.3177 -3.062458,-1.69344 0.160159,-0.37574 0.480468,-1.12719 1.237911,-1.9376 0.757442,-0.81042 1.951917,-1.6797 3.789794,-2.46797 1.837878,-0.78827 4.318994,-1.49548 6.238288,-1.6796 1.919294,-0.18411 3.276625,0.15483 4.244557,0.73269 0.967932,0.57787 1.546454,1.39454 1.08809,2.16456 -0.458363,0.77001 -1.953562,1.49345 -2.923819,1.94111 -0.970256,0.44765 -1.415537,0.6195 -1.534635,0.95249 -0.119098,0.33299 0.08802,0.82696 0.179297,1.5043 0.09128,0.67734 0.06676,1.53804 0.299454,2.56914 0.232696,1.0311 0.722545,2.23251 0.813106,3.5996 0.09056,1.36709 -0.218127,2.89978 -0.147257,4.12048 0.07087,1.2207 0.521233,2.1292 0.482712,2.71216 -0.03852,0.58296 -0.565953,0.84044 -1.144332,1.06752 -0.578379,0.22707 -1.207693,0.42373 -1.716252,0.47367 -0.50856,0.0499 -0.896365,-0.0469 -1.078075,-0.52567 -0.181711,-0.47877 -0.157192,-1.33944 -0.208289,-2.41364 -0.0511,-1.07421 -0.177815,-2.36183 -0.297931,-3.42674 -0.120117,-1.06491 -0.233622,-1.90699 -0.37507,-2.78262 -0.141449,-0.87563 -0.310833,-1.78474 -0.648645,-2.72709 -0.337812,-0.94235 -0.844068,-1.9179 -1.097222,-2.40572 -0.253154,-0.48783 -0.25315,-0.48783 -1.030331,-0.3458 z"
       id="path17374"
       inkscape:path-effect="#path-effect17376"
       inkscape:original-d="m 88.475383,135.72485 c -1.520636,0.42942 -3.041383,0.85873 -4.562256,1.28801 l -2.572048,-1.22276 c 0.248174,-0.77829 0.496231,-1.55658 0.744176,-2.33495 1.107377,-0.97799 2.2146,-1.95599 3.321725,-2.93406 2.403623,-0.93791 4.807035,-1.87584 7.210378,-2.81385 1.383405,0.20956 2.766642,0.41904 4.149788,0.62848 0.653077,0.75862 1.306002,1.51712 1.958829,2.27559 -1.420291,0.86125 -2.840647,1.72239 -4.261148,2.5835 -0.426999,0.21311 -0.854095,0.42618 -1.281319,0.63919 0.25288,0.47232 0.505632,0.94457 0.758279,1.41677 0.05683,0.85927 0.113552,1.71845 0.170153,2.57758 0.60105,1.15 1.201967,2.29988 1.802782,3.44977 -0.162752,1.5551 -0.325594,3.11006 -0.488556,4.66507 0.534136,0.86211 1.068132,1.72412 1.602038,2.58612 -0.500717,0.30611 -1.001531,0.61216 -1.502461,0.91816 -0.607889,0.25516 -1.21586,0.51027 -1.82397,0.76532 -0.395107,-0.0598 -0.790317,-0.11965 -1.185655,-0.17956 -0.0566,-0.85917 -0.113319,-1.71831 -0.170154,-2.57758 -0.247383,-1.26996 -0.494936,-2.5399 -0.742589,-3.80997 -0.192261,-0.82762 -0.384634,-1.65526 -0.577134,-2.48298 -0.254191,-0.88909 -0.508537,-1.77818 -0.762976,-2.66735 -0.595854,-0.92346 -1.19181,-1.84695 -1.787886,-2.7705 z"
       sodipodi:nodetypes="ccccccccccccccccccccccc" />
    <path
       style="fill:#e6e6e6;stroke-width:0.0905383"
       d="m 70.850468,155.86563 7.756933,1.38307"
       id="path18286" />
    <path
       style="fill:#e6e6e6;stroke-width:0.0905383"
       d="m 64.907311,147.17298 c 1.766179,0.13407 3.456077,0.29637 4.813354,0.4982 1.357278,0.20183 2.381839,0.44316 4.021884,0.72137 1.640044,0.27821 3.895447,0.5933 6.661053,0.81037 2.765605,0.21706 6.041165,0.33608 9.966733,-0.16777 3.925569,-0.50384 8.500797,-1.63049 11.994485,-2.57341 3.4937,-0.94292 5.90554,-1.70203 8.12008,-2.50247 2.21454,-0.80043 4.2316,-1.64212 6.07965,-2.57024 1.84806,-0.92813 3.52697,-1.94262 5.06625,-2.67603 1.53929,-0.7334 2.9388,-1.18567 3.67069,-0.65187 0.73189,0.5338 0.79621,2.05353 0.35435,3.11957 -0.44186,1.06603 -1.38989,1.67843 -2.58942,2.2728 -1.19953,0.59438 -2.65049,1.17068 -4.0903,1.84139 -1.43982,0.6707 -2.86831,1.43573 -4.98016,2.20835 -2.11185,0.77263 -4.90683,1.55275 -7.42298,2.29134 -2.51616,0.73859 -4.75317,1.43556 -6.676899,1.93852 -1.923729,0.50296 -3.534038,0.81187 -5.577185,1.17714 -2.043147,0.36527 -4.518801,0.78684 -6.998475,0.90075 -2.479674,0.11391 -4.962967,-0.0799 -7.393775,-0.21491 -2.430808,-0.13502 -4.808721,-0.21122 -7.369368,-0.40328 -2.560647,-0.19207 -5.303615,-0.49997 -7.539195,-0.98149 -2.235579,-0.48152 -3.963439,-1.13663 -4.805853,-2.06292 -0.842413,-0.92629 -0.799238,-2.12365 0.14364,-2.66949 0.942879,-0.54584 2.785261,-0.44 4.551441,-0.30592 z"
       id="path18353"
       inkscape:path-effect="#path-effect18355"
       inkscape:original-d="m 66.135798,149.7155 c 1.697844,0.002 3.395516,0.005 5.093114,0.007 1.042913,0.14375 2.08566,0.28743 3.1283,0.43106 2.275296,0.10117 4.550357,0.20226 6.825389,0.30331 3.272479,-0.19021 6.544675,-0.38044 9.81689,-0.57077 4.449013,-1.55289 8.897679,-3.10577 13.346419,-4.65877 2.32979,-0.98305 4.65934,-1.96611 6.98887,-2.94929 1.92896,-1.02803 3.85771,-2.05609 5.78639,-3.08426 1.57603,-1.1682 3.15184,-2.33642 4.72758,-3.50477 1.35083,-0.58212 2.70148,-1.16429 4.05203,-1.74654 0.20737,1.50702 0.41467,3.01391 0.62184,4.52078 -0.88602,0.69911 -1.77211,1.39813 -2.65834,2.09713 -1.39012,0.71061 -2.78028,1.42112 -4.17069,2.1316 -1.34996,0.89638 -2.69998,1.79264 -4.05021,2.68889 -2.70904,1.04024 -5.41805,2.08033 -8.12738,3.12044 -2.16133,0.90484 -4.3227,1.80954 -6.48421,2.71421 -1.574017,0.45939 -3.148034,0.91873 -4.722317,1.37802 -2.42496,0.65317 -4.849859,1.3062 -7.275093,1.95924 -2.490584,0.0412 -4.981088,0.0823 -7.471939,0.12339 -2.374568,0.14838 -4.749078,0.29662 -7.12391,0.44485 -2.759874,-0.0479 -5.519652,-0.0959 -8.279814,-0.14398 -1.78187,-0.4893 -3.563787,-0.97863 -5.345845,-1.46802 -0.06976,-1.19616 -0.139639,-2.39226 -0.209644,-3.58853 1.844353,-0.0682 3.688509,-0.13651 5.53257,-0.20486 z"
       sodipodi:nodetypes="cccccccccccccccccccccccc" />
    <path
       style="fill:#1a1a1a;stroke-width:0.264583"
       d="m 282.47676,243.26405 v -45.74816 l 47.56359,-0.72616 0.72615,46.83741 -14.16016,-1e-5 1e-5,-31.95109 c 0,0 -17.15547,-4.91464 -17.42786,1.08924 -0.83163,18.32982 -1.45234,30.86185 -1.45234,30.86185 z"
       id="path23242"
       sodipodi:nodetypes="ccccccscc" />
    <path
       style="fill:#1a1a1a;stroke-width:0.264583"
       d="m 250.16259,169.92176 113.28116,-0.36308 -2.54154,-18.51711 c 0,0 -27.21995,-10.97251 -32.67728,-26.5049 -4.72005,-13.43398 -6.53545,-4.35696 -6.53545,-4.35696 0,0 -6.17237,6.17238 -35.2188,20.6956 -37.76319,18.88161 -38.48657,15.24938 -38.48657,15.24938 z"
       id="path25416"
       sodipodi:nodetypes="cccscscc" />
  </g>
</svg>
